<?xml version="1.0" encoding="UTF-8"?>
<svg version="1.1" xmlns="http://www.w3.org/2000/svg" width="300" height="105">
<path d="M0 0 C99 0 198 0 300 0 C300 34.65 300 69.3 300 105 C201 105 102 105 0 105 C0 70.35 0 35.7 0 0 Z " fill="#F7F8F7" transform="translate(0,0)"/>
<path d="M0 0 C2.79026304 1.01397383 5.12217645 2.50577936 7.63647461 4.08325195 C8.18956299 4.42831787 8.74265137 4.77338379 9.3125 5.12890625 C12.68724342 7.24536506 16.03201158 9.40678436 19.37084961 11.5793457 C20.12019775 12.06677246 20.8695459 12.55419922 21.64160156 13.05639648 C23.10865943 14.01337453 24.5734476 14.97384354 26.03564453 15.93823242 C29.9034511 18.46983776 33.7563653 20.73332957 37.94897461 22.70825195 C37.94897461 25.67825195 37.94897461 28.64825195 37.94897461 31.70825195 C33.19897461 29.83325195 33.19897461 29.83325195 30.94897461 28.70825195 C30.61897461 33.32825195 30.28897461 37.94825195 29.94897461 42.70825195 C24.94897461 44.70825195 24.94897461 44.70825195 21.94897461 44.70825195 C21.94897461 37.11825195 21.94897461 29.52825195 21.94897461 21.70825195 C19.47397461 20.71825195 19.47397461 20.71825195 16.94897461 19.70825195 C15.65468533 18.94049428 14.38233874 18.13435615 13.13647461 17.2902832 C12.11166992 16.61642578 12.11166992 16.61642578 11.06616211 15.92895508 C9.64927664 14.98654325 8.23781402 14.03592938 6.83178711 13.07739258 C6.14858398 12.63202148 5.46538086 12.18665039 4.76147461 11.7277832 C4.14916992 11.31633057 3.53686523 10.90487793 2.90600586 10.48095703 C0.20663623 9.41515054 -1.30580789 9.85567351 -4.05102539 10.70825195 C-6.18106715 11.80330231 -6.18106715 11.80330231 -8.18774414 13.2121582 C-9.30052734 13.95175781 -9.30052734 13.95175781 -10.43579102 14.70629883 C-11.19569336 15.22256836 -11.9555957 15.73883789 -12.73852539 16.27075195 C-14.26057176 17.29689349 -15.78519018 18.3192336 -17.31274414 19.3371582 C-17.98265381 19.7916333 -18.65256348 20.2461084 -19.34277344 20.71435547 C-21.05102539 21.70825195 -21.05102539 21.70825195 -23.05102539 21.70825195 C-23.05102539 26.65825195 -23.05102539 31.60825195 -23.05102539 36.70825195 C-25.36102539 36.70825195 -27.67102539 36.70825195 -30.05102539 36.70825195 C-30.05102539 33.73825195 -30.05102539 30.76825195 -30.05102539 27.70825195 C-34.01102539 29.68825195 -34.01102539 29.68825195 -38.05102539 31.70825195 C-39.28934179 26.13582815 -39.28934179 26.13582815 -38.05102539 22.70825195 C-35.74177987 21.02241492 -33.59611631 19.64077435 -31.11352539 18.27075195 C-26.0233741 15.58407101 -26.0233741 15.58407101 -22.89868164 10.91918945 C-22.69800955 8.41958972 -22.68889326 6.1862704 -23.05102539 3.70825195 C-20.74102539 3.70825195 -18.43102539 3.70825195 -16.05102539 3.70825195 C-16.05102539 5.35825195 -16.05102539 7.00825195 -16.05102539 8.70825195 C-15.08680664 8.04696289 -14.12258789 7.38567383 -13.12915039 6.7043457 C-11.85355106 5.85081968 -10.57748478 4.99799121 -9.30102539 4.14575195 C-8.66680664 3.70811523 -8.03258789 3.27047852 -7.37915039 2.81958008 C-2.56490228 -0.36484445 -2.56490228 -0.36484445 0 0 Z " fill="#0e2430" transform="translate(86.051025390625,15.291748046875)"/>
<path d="M0 0 C13.99126162 5.34211807 26.89564186 0.86059759 40.4375 -3.6875 C35.42107692 2.91305669 28.89720744 8.82889459 20.4375 10.3125 C8.70061412 11.70447568 -0.7345641 8.76616853 -11.69140625 4.94140625 C-24.58181528 0.4791535 -36.57888124 2.57567697 -49.5625 5.3125 C-46.5880931 2.1914674 -43.85806855 -0.37933959 -40.0625 -2.4375 C-38.96421875 -3.04851563 -38.96421875 -3.04851563 -37.84375 -3.671875 C-25.80026354 -9.03370116 -11.61742354 -4.49563133 0 0 Z " fill="#17727E" transform="translate(89.5625,60.6875)"/>
<path d="M0 0 C1.17304687 0.45761719 2.34609375 0.91523437 3.5546875 1.38671875 C4.24506104 1.66016113 4.93543457 1.93360352 5.64672852 2.21533203 C11.3009367 4.30187894 16.24387138 4.79064507 22.2421875 4.63671875 C23.46518555 4.62898438 23.46518555 4.62898438 24.71289062 4.62109375 C29.09137911 4.56446011 33.24624535 4.24979925 37.5546875 3.38671875 C32.73916608 9.36460741 26.28869561 11.79414472 18.74609375 12.73828125 C8.2336913 13.06632785 -0.13667404 9.15417195 -9.4765625 4.74609375 C-16.03013766 1.74524618 -22.34299907 0.92975278 -29.4453125 0.38671875 C-28.4453125 -1.61328125 -28.4453125 -1.61328125 -25.5703125 -2.73828125 C-16.29325742 -5.05284063 -8.79451092 -3.44537898 0 0 Z " fill="#145B68" transform="translate(80.4453125,70.61328125)"/>
<path d="M0 0 C13.3585823 -0.40480552 13.3585823 -0.40480552 18 3 C20 5 20 5 20.4375 8.875 C20.33222674 12.09168288 20.12039294 12.84465427 18.0625 15.5 C13.94895266 17.5147987 10.49692378 17.3526999 6 17 C6 19.31 6 21.62 6 24 C4.02 24 2.04 24 0 24 C0 16.08 0 8.16 0 0 Z " fill="#213E57" transform="translate(140,53)"/>
<path d="M0 0 C3 1.3125 3 1.3125 5 3 C5 3.99 5 4.98 5 6 C2.07485735 7.05305136 0.5963632 6.92918653 -2.5625 6.375 C-5.86079197 5.68294906 -5.86079197 5.68294906 -7.9375 7.0625 C-9.45929053 9.83752979 -9.32443143 11.88545823 -9 15 C-8.01 16.485 -8.01 16.485 -7 18 C-3.14880946 18.28527337 0.30992118 18.18082522 4 17 C4.66 18.32 5.32 19.64 6 21 C1.48322953 23.71006228 -2.7666228 25.26808755 -8 24 C-11.86903463 21.63393651 -14.55329581 19.34011257 -16 15 C-16.46995626 11.50889633 -16.67927049 9.05757191 -14.73046875 6.0234375 C-10.24294294 0.71702011 -7.12468515 -0.77649532 0 0 Z " fill="#414A52" transform="translate(155,22)"/>
<path d="M0 0 C0.96550781 -0.03738281 1.93101562 -0.07476562 2.92578125 -0.11328125 C5.6875 0.3125 5.6875 0.3125 8.02734375 1.87890625 C10.30856767 5.22291214 10.08589103 7.55594218 9.9375 11.5625 C9.90140625 12.82578125 9.8653125 14.0890625 9.828125 15.390625 C9.75851562 16.83695313 9.75851562 16.83695313 9.6875 18.3125 C7.41725032 18.39347324 5.14617925 18.45167704 2.875 18.5 C0.97814453 18.55220703 0.97814453 18.55220703 -0.95703125 18.60546875 C-4.3125 18.3125 -4.3125 18.3125 -6.23828125 16.95703125 C-7.78013912 14.59658702 -7.7263927 13.0717847 -7.3125 10.3125 C-6.3125 8.5 -6.3125 8.5 -4.3125 7.3125 C-1.59375957 7.06582927 0.94633852 7.17768878 3.6875 7.3125 C3.3575 6.6525 3.0275 5.9925 2.6875 5.3125 C0.0475 5.3125 -2.5925 5.3125 -5.3125 5.3125 C-5.875 3.375 -5.875 3.375 -6.3125 1.3125 C-4.58665266 -0.41334734 -2.35040633 0.0591493 0 0 Z " fill="#213E57" transform="translate(247.3125,58.6875)"/>
<path d="M0 0 C0.96550781 -0.03738281 1.93101562 -0.07476563 2.92578125 -0.11328125 C5.6875 0.3125 5.6875 0.3125 8.02734375 1.87890625 C10.30856767 5.22291214 10.08589103 7.55594218 9.9375 11.5625 C9.90140625 12.82578125 9.8653125 14.0890625 9.828125 15.390625 C9.75851563 16.83695313 9.75851563 16.83695313 9.6875 18.3125 C7.35416667 18.3125 5.02083333 18.3125 2.6875 18.3125 C1.553125 18.374375 0.41875 18.43625 -0.75 18.5 C-4.3125 18.3125 -4.3125 18.3125 -6.25 17.125 C-7.69968434 14.65200907 -7.73567323 13.13365488 -7.3125 10.3125 C-6.3125 8.5 -6.3125 8.5 -4.3125 7.3125 C-1.59375957 7.06582927 0.94633852 7.17768878 3.6875 7.3125 C3.3575 6.6525 3.0275 5.9925 2.6875 5.3125 C0.0475 5.3125 -2.5925 5.3125 -5.3125 5.3125 C-5.875 3.375 -5.875 3.375 -6.3125 1.3125 C-4.58665266 -0.41334734 -2.35040633 0.0591493 0 0 Z " fill="#424B52" transform="translate(170.3125,27.6875)"/>
<path d="M0 0 C1.29550781 -0.03867187 1.29550781 -0.03867187 2.6171875 -0.078125 C5.78131457 0.33587293 7.0273181 0.81881568 9.125 3.25 C9.42142569 5.96229503 9.50561189 8.24739732 9.375 10.9375 C9.35695312 11.63939453 9.33890625 12.34128906 9.3203125 13.06445312 C9.27326213 14.79355436 9.20151873 16.52195205 9.125 18.25 C7.02111431 18.30402274 4.91683286 18.34280256 2.8125 18.375 C1.64074219 18.39820312 0.46898437 18.42140625 -0.73828125 18.4453125 C-3.875 18.25 -3.875 18.25 -6.875 16.25 C-7.25 12.75 -7.25 12.75 -6.875 9.25 C-3.78611478 7.19074319 -3.16564073 7.0109626 0.3125 7.125 C2.1996875 7.186875 2.1996875 7.186875 4.125 7.25 C3.795 6.59 3.465 5.93 3.125 5.25 C0.155 5.25 -2.815 5.25 -5.875 5.25 C-6.205 3.93 -6.535 2.61 -6.875 1.25 C-4.43545342 0.03022671 -2.72194151 0.04846187 0 0 Z " fill="#404850" transform="translate(207.875,27.75)"/>
<path d="M0 0 C2.09375 0.41796875 2.09375 0.41796875 4.65625 2.04296875 C6.09375 4.41796875 6.09375 4.41796875 6.09375 10.41796875 C2.13375 10.41796875 -1.82625 10.41796875 -5.90625 10.41796875 C-4.91625 11.90296875 -4.91625 11.90296875 -3.90625 13.41796875 C-1.44815002 13.66804605 -1.44815002 13.66804605 1.09375 13.41796875 C2.08375 13.41796875 3.07375 13.41796875 4.09375 13.41796875 C4.09375 14.73796875 4.09375 16.05796875 4.09375 17.41796875 C2.53389791 18.97782084 1.00468902 18.66249219 -1.15625 18.73046875 C-4.6989431 18.70226259 -5.78715304 18.49240435 -8.90625 16.54296875 C-11.47343101 13.81533892 -11.85438481 12.87611125 -12.28125 9.10546875 C-11.90625 5.41796875 -11.90625 5.41796875 -9.96875 2.48046875 C-6.36663352 0.05455357 -4.2572076 -0.2625278 0 0 Z " fill="#434B52" transform="translate(240.90625,27.58203125)"/>
<path d="M0 0 C2.413125 -0.0825 4.82625 -0.165 7.3125 -0.25 C8.06829346 -0.28641602 8.82408691 -0.32283203 9.6027832 -0.36035156 C12.65715449 -0.41107368 14.54003676 -0.36505019 16.96875 1.5625 C18.38024578 4.89876276 18.28774536 7.64116713 18.1875 11.25 C18.16042969 12.51328125 18.13335937 13.7765625 18.10546875 15.078125 C18.07066406 16.04234375 18.03585938 17.0065625 18 18 C16.02 18 14.04 18 12 18 C11.67 13.71 11.34 9.42 11 5 C9.68 5 8.36 5 7 5 C5.71553081 7.56893838 5.67022856 9.76576337 5.4375 12.625 C5.31181641 14.12933594 5.31181641 14.12933594 5.18359375 15.6640625 C5.12300781 16.43492188 5.06242188 17.20578125 5 18 C3.35 18 1.7 18 0 18 C0 12.06 0 6.12 0 0 Z " fill="#1F3D56" transform="translate(219,59)"/>
<path d="M0 0 C1.31677734 0.00580078 1.31677734 0.00580078 2.66015625 0.01171875 C4.9375 0.3125 4.9375 0.3125 6.9375 2.3125 C6.6075 3.3025 6.2775 4.2925 5.9375 5.3125 C2.9675 4.9825 -0.0025 4.6525 -3.0625 4.3125 C-2.7325 4.9725 -2.4025 5.6325 -2.0625 6.3125 C0.26997761 6.65176947 2.60335471 6.98490066 4.9375 7.3125 C6.9375 9.3125 6.9375 9.3125 7.3125 12.25 C6.9375 15.3125 6.9375 15.3125 5.5 17.1875 C1.68605449 18.8619151 -1.95829485 18.54928107 -6.0625 18.3125 C-7.125 16.4375 -7.125 16.4375 -8.0625 14.3125 C-7.7325 13.6525 -7.4025 12.9925 -7.0625 12.3125 C-2.6075 13.3025 -2.6075 13.3025 1.9375 14.3125 C1.9375 13.3225 1.9375 12.3325 1.9375 11.3125 C1.03 11.374375 0.1225 11.43625 -0.8125 11.5 C-4.39125347 11.29353345 -5.68380509 10.96565971 -8.0625 8.3125 C-8.5 5.8125 -8.5 5.8125 -8.0625 3.3125 C-5.70968389 0.13240338 -3.85333896 -0.07377527 0 0 Z " fill="#1C3954" transform="translate(180.0625,58.6875)"/>
<path d="M0 0 C1.31677734 0.00580078 1.31677734 0.00580078 2.66015625 0.01171875 C4.9375 0.3125 4.9375 0.3125 6.9375 2.3125 C6.6075 3.3025 6.2775 4.2925 5.9375 5.3125 C2.9675 4.9825 -0.0025 4.6525 -3.0625 4.3125 C-2.24048016 6.50367773 -2.24048016 6.50367773 0.00390625 7.1640625 C0.82761719 7.41929688 1.65132812 7.67453125 2.5 7.9375 C3.32628906 8.19789062 4.15257812 8.45828125 5.00390625 8.7265625 C5.96103516 9.01660156 5.96103516 9.01660156 6.9375 9.3125 C7.41542208 14.68912338 7.41542208 14.68912338 5.5 17.1875 C1.68605449 18.8619151 -1.95829485 18.54928107 -6.0625 18.3125 C-6.7225 16.9925 -7.3825 15.6725 -8.0625 14.3125 C-4.48605152 13.0744986 -1.72555234 13.56323929 1.9375 14.3125 C1.9375 13.3225 1.9375 12.3325 1.9375 11.3125 C1.03 11.374375 0.1225 11.43625 -0.8125 11.5 C-4.39125347 11.29353345 -5.68380509 10.96565971 -8.0625 8.3125 C-8.5 5.8125 -8.5 5.8125 -8.0625 3.3125 C-5.70968389 0.13240338 -3.85333896 -0.07377527 0 0 Z " fill="#414A52" transform="translate(191.0625,27.6875)"/>
<path d="M0 0 C2.5625 1.375 2.5625 1.375 4 3 C4 3.66 4 4.32 4 5 C0.27147551 5.95876344 -2.26761694 5.82941846 -6 5 C-7.35618499 6.12534105 -7.35618499 6.12534105 -7.0625 9.0625 C-7.041875 10.031875 -7.02125 11.00125 -7 12 C-3.7 12 -0.4 12 3 12 C3.33 12.66 3.66 13.32 4 14 C1.21030106 16.91650344 -0.18108859 17.90729305 -4.3125 18.375 C-8 18 -8 18 -10.875 15.9375 C-13.4553274 12.37057683 -14.15459256 10.4058879 -14 6 C-10.58955388 -0.25248455 -6.9151009 -1.32883469 0 0 Z " fill="#28435B" transform="translate(203,59)"/>
<path d="M0 0 C5.29284165 -0.34707158 5.29284165 -0.34707158 8 0 C10 1.8125 10 1.8125 11 4 C11 4.99 11 5.98 11 7 C11.66 7 12.32 7 13 7 C12.625 8.9375 12.625 8.9375 12 11 C9.59454362 12.20272819 8.05003047 12.10071472 5.375 12.0625 C4.14910156 12.04896484 4.14910156 12.04896484 2.8984375 12.03515625 C1.95871094 12.01775391 1.95871094 12.01775391 1 12 C1.66 11.01 2.32 10.02 3 9 C2.01 8.67 1.02 8.34 0 8 C0 5.36 0 2.72 0 0 Z " fill="#27435B" transform="translate(145,58)"/>
<path d="M0 0 C0.66 1.32 1.32 2.64 2 4 C6.455 3.505 6.455 3.505 11 3 C11.33 3.99 11.66 4.98 12 6 C8.7 6.66 5.4 7.32 2 8 C1.938125 8.94875 1.87625 9.8975 1.8125 10.875 C1.544375 11.90625 1.27625 12.9375 1 14 C-1.5625 15.375 -1.5625 15.375 -4 16 C-3.67 15.34 -3.34 14.68 -3 14 C-2.960008 12.00039988 -2.95653201 9.99952758 -3 8 C-5.97 7.01 -8.94 6.02 -12 5 C-12 4.34 -12 3.68 -12 3 C-5.25 2.875 -5.25 2.875 -3 4 C-2.67 3.01 -2.34 2.02 -2 1 C-1.34 0.67 -0.68 0.34 0 0 Z " fill="#E2E3E4" transform="translate(200,29)"/>
<path d="M0 0 C-6.05935872 5.85041532 -13.90009758 8.25 -22.1875 8.25 C-23.79259941 8.18714296 -25.39755048 8.11158256 -27 8 C-27 7.67 -27 7.34 -27 7 C-25.02 7 -23.04 7 -21 7 C-21 5.35 -21 3.7 -21 2 C-21.66 1.67 -22.32 1.34 -23 1 C-21.81921875 0.93941406 -20.6384375 0.87882812 -19.421875 0.81640625 C-17.8645723 0.73197418 -16.30728121 0.64732751 -14.75 0.5625 C-13.97269531 0.52318359 -13.19539063 0.48386719 -12.39453125 0.44335938 C-11.64042969 0.40146484 -10.88632813 0.35957031 -10.109375 0.31640625 C-9.41811523 0.27974854 -8.72685547 0.24309082 -8.01464844 0.20532227 C-5.9591649 0.05158498 -5.9591649 0.05158498 -3.86816406 -0.58227539 C-2 -1 -2 -1 0 0 Z " fill="#187C87" transform="translate(118,75)"/>
<path d="M0 0 C1.98 0 3.96 0 6 0 C6 5.94 6 11.88 6 18 C4.02 18 2.04 18 0 18 C0 12.06 0 6.12 0 0 Z " fill="#2E4960" transform="translate(209,59)"/>
<path d="M0 0 C1.98 0 3.96 0 6 0 C6 5.94 6 11.88 6 18 C4.02 18 2.04 18 0 18 C0 12.06 0 6.12 0 0 Z " fill="#2B445C" transform="translate(163,59)"/>
<path d="M0 0 C3.44165321 0.35299007 5.06872538 1.04581692 8 3 C9.32 2.01 10.64 1.02 12 0 C12 3.3 12 6.6 12 10 C9 10 9 10 7.1875 9.5 C4.85609232 8.88162432 4.85609232 8.88162432 1.8125 9 C0.884375 9 -0.04375 9 -1 9 C-2 8 -2 8 -2.1875 5.0625 C-2 2 -2 2 0 0 Z " fill="#EEEFF0" transform="translate(197,63)"/>
<path d="M0 0 C0 0.99 0 1.98 0 3 C0.66 3 1.32 3 2 3 C1.33333333 5.66666667 0.66666667 8.33333333 0 11 C-5.625 11.25 -5.625 11.25 -9 9 C-9.375 5.5 -9.375 5.5 -9 2 C-5.5647952 -0.29013653 -4.014669 -0.17842973 0 0 Z " fill="#424A52" transform="translate(210,35)"/>
<path d="M0 0 C2.7836829 0.38187708 4.30211391 1.19206355 6.1640625 3.296875 C6.1640625 3.956875 6.1640625 4.616875 6.1640625 5.296875 C3.29442195 6.03478257 1.40610425 6.3475349 -1.5234375 5.734375 C-2.2865625 5.59 -3.0496875 5.445625 -3.8359375 5.296875 C-5.78810185 7.24903935 -6.68420395 8.82887453 -7.8359375 11.296875 C-7.8359375 9.976875 -7.8359375 8.656875 -7.8359375 7.296875 C-8.8259375 7.626875 -9.8159375 7.956875 -10.8359375 8.296875 C-9.85108455 1.0089632 -6.90309426 -0.22485649 0 0 Z " fill="#1E3A54" transform="translate(200.8359375,58.703125)"/>
<path d="M0 0 C0.33 0.66 0.66 1.32 1 2 C1.99 2.33 2.98 2.66 4 3 C3.9071875 4.175625 3.9071875 4.175625 3.8125 5.375 C3.874375 6.24125 3.93625 7.1075 4 8 C7.18762365 10.12508244 9.26512223 10.5020163 13 11 C13 11.99 13 12.98 13 14 C7.375 14.25 7.375 14.25 4 12 C4 13.65 4 15.3 4 17 C2.68 17.33 1.36 17.66 0 18 C0 12.06 0 6.12 0 0 Z " fill="#EFF0F1" transform="translate(169,59)"/>
<path d="M0 0 C3.22939919 -0.35882213 4.61209763 -0.27258004 7.3125 1.625 C9.42956587 4.60457419 9.32523926 6.42236811 9 10 C5.37 10 1.74 10 -2 10 C0 8 0 8 2.625 7.875 C3.40875 7.91625 4.1925 7.9575 5 8 C2.72584713 4.62911733 2.72584713 4.62911733 -1 3 C-0.67 2.01 -0.34 1.02 0 0 Z " fill="#384149" transform="translate(238,28)"/>
<path d="M0 0 C3.375 -0.125 3.375 -0.125 7 0 C7.66 0.66 8.32 1.32 9 2 C8.625 4.625 8.625 4.625 8 7 C5.36 7 2.72 7 0 7 C0 4.69 0 2.38 0 0 Z " fill="#EAECED" transform="translate(146,58)"/>
<path d="M0 0 C0.33 0.66 0.66 1.32 1 2 C-1.31 2.33 -3.62 2.66 -6 3 C-6 5.64 -6 8.28 -6 11 C-4.35 11 -2.7 11 -1 11 C-1 11.33 -1 11.66 -1 12 C-7.40818182 12.36272727 -7.40818182 12.36272727 -9.9375 10.8125 C-11.38718434 8.33950907 -11.42317323 6.82115488 -11 4 C-10 2.25 -10 2.25 -8 1 C-5.31943869 0.45542837 -2.73709108 0.22435173 0 0 Z " fill="#223E56" transform="translate(251,65)"/>
<path d="M0 0 C0.33 0 0.66 0 1 0 C1 1.98 1 3.96 1 6 C-0.2065625 6.4640625 -0.2065625 6.4640625 -1.4375 6.9375 C-3.89080405 7.76335345 -3.89080405 7.76335345 -5 9 C-6.66617115 9.04063832 -8.33388095 9.042721 -10 9 C-10.66 7.68 -11.32 6.36 -12 5 C-8.04 5 -4.08 5 0 5 C0 3.35 0 1.7 0 0 Z " fill="#CACDCE" transform="translate(247,33)"/>
<path d="M0 0 C-5.14285714 4.42857143 -5.14285714 4.42857143 -9 5 C-9 4.01 -9 3.02 -9 2 C-12.3 2 -15.6 2 -19 2 C-19 1.67 -19 1.34 -19 1 C-18.10796875 0.93941406 -17.2159375 0.87882812 -16.296875 0.81640625 C-14.54117188 0.69072266 -14.54117188 0.69072266 -12.75 0.5625 C-11.58984375 0.48128906 -10.4296875 0.40007812 -9.234375 0.31640625 C-6.13050083 0.09788188 -6.13050083 0.09788188 -3.703125 -0.59765625 C-2 -1 -2 -1 0 0 Z " fill="#3E9BA3" transform="translate(118,75)"/>
<path d="M0 0 C0.33 0.66 0.66 1.32 1 2 C2.32 2.66 3.64 3.32 5 4 C-0.28 3.67 -5.56 3.34 -11 3 C-8.89427904 -1.21144191 -4.11694326 -0.07767817 0 0 Z " fill="#1C4756" transform="translate(62,68)"/>
<path d="M0 0 C1.11375 0.3403125 1.11375 0.3403125 2.25 0.6875 C1.25 3.6875 1.25 3.6875 -0.75 4.6875 C-2.74960012 4.727492 -4.75047242 4.73096799 -6.75 4.6875 C-6.75 2.6875 -6.75 2.6875 -5.0625 1 C-2.75 -0.3125 -2.75 -0.3125 0 0 Z " fill="#1A3650" transform="translate(204.75,71.3125)"/>
<path d="M0 0 C-1.06893218 1.03590338 -2.15578488 2.05333942 -3.25 3.0625 C-4.15492187 3.91521484 -4.15492187 3.91521484 -5.078125 4.78515625 C-7 6 -7 6 -8.984375 5.74609375 C-9.64953125 5.49988281 -10.3146875 5.25367188 -11 5 C-11.7425 4.814375 -12.485 4.62875 -13.25 4.4375 C-13.8275 4.293125 -14.405 4.14875 -15 4 C-12.87875034 3.13656176 -10.75286928 2.28449352 -8.625 1.4375 C-6.84996094 0.72400391 -6.84996094 0.72400391 -5.0390625 -0.00390625 C-2 -1 -2 -1 0 0 Z " fill="#3CA6AB" transform="translate(130,58)"/>
<path d="M0 0 C1.67542976 0.28604898 3.34385343 0.61781233 5 1 C4.67 2.65 4.34 4.3 4 6 C2.68 5.67 1.36 5.34 0 5 C-0.5625 3.0625 -0.5625 3.0625 -1 1 C-0.67 0.67 -0.34 0.34 0 0 Z " fill="#253F55" transform="translate(210,51)"/>
<path d="M0 0 C2.875 -0.125 2.875 -0.125 6 0 C6.66 0.66 7.32 1.32 8 2 C7.67 2.99 7.34 3.98 7 5 C4.36 4.34 1.72 3.68 -1 3 C-0.67 2.01 -0.34 1.02 0 0 Z " fill="#1B3650" transform="translate(179,59)"/>
<path d="M0 0 C2.97 0.33 5.94 0.66 9 1 C8.01 2.485 8.01 2.485 7 4 C3.375 4.1875 3.375 4.1875 0 4 C0 2.68 0 1.36 0 0 Z " fill="#38414A" transform="translate(184,41)"/>
<path d="M0 0 C1.65 0.33 3.3 0.66 5 1 C5 2.32 5 3.64 5 5 C3.02 5 1.04 5 -1 5 C-0.67 3.35 -0.34 1.7 0 0 Z " fill="#1E3850" transform="translate(164,51)"/>
<path d="M0 0 C-1.65 1.32 -3.3 2.64 -5 4 C-4.67 4.99 -4.34 5.98 -4 7 C-3.34 7.33 -2.68 7.66 -2 8 C-4.475 9.485 -4.475 9.485 -7 11 C-7.28782489 7.94905619 -7.44653726 5.03968138 -7 2 C-3.05660377 -1.52830189 -3.05660377 -1.52830189 0 0 Z " fill="#174957" transform="translate(55,36)"/>
<path d="M0 0 C2.31 0 4.62 0 7 0 C7 1.32 7 2.64 7 4 C5.02 3.34 3.04 2.68 1 2 C1.33 4.31 1.66 6.62 2 9 C1.01 9.495 1.01 9.495 0 10 C0 6.7 0 3.4 0 0 Z " fill="#136973" transform="translate(63,19)"/>
<path d="M0 0 C0.33 0.99 0.66 1.98 1 3 C-3.455 3.495 -3.455 3.495 -8 4 C-8 3.01 -8 2.02 -8 1 C-5.29120665 -0.35439668 -2.99066732 -0.06501451 0 0 Z " fill="#DFE3E5" transform="translate(250,63)"/>
<path d="M0 0 C0.66 0.33 1.32 0.66 2 1 C1.5 2.875 1.5 2.875 0 5 C-2.65177645 5.98494554 -5.20547307 6.45912382 -8 7 C-5.42215154 4.35247996 -3.08351902 2.05567935 0 0 Z " fill="#204654" transform="translate(48,59)"/>
<path d="M0 0 C1.2065625 0.0309375 1.2065625 0.0309375 2.4375 0.0625 C2.1075 1.0525 1.7775 2.0425 1.4375 3.0625 C2.4275 3.3925 3.4175 3.7225 4.4375 4.0625 C2.1275 4.3925 -0.1825 4.7225 -2.5625 5.0625 C-3.125 3.125 -3.125 3.125 -3.5625 1.0625 C-2.5625 0.0625 -2.5625 0.0625 0 0 Z " fill="#243D55" transform="translate(244.5625,58.9375)"/>
<path d="M0 0 C0.33 0.99 0.66 1.98 1 3 C-1.64 3 -4.28 3 -7 3 C-7.33 2.34 -7.66 1.68 -8 1 C-5.29120665 -0.35439668 -2.99066732 -0.06501451 0 0 Z " fill="#E5E7E7" transform="translate(173,32)"/>
<path d="M0 0 C0.99 0.33 1.98 0.66 3 1 C2.67 1.99 2.34 2.98 2 4 C4.64 4.33 7.28 4.66 10 5 C10 5.33 10 5.66 10 6 C7.03 6 4.06 6 1 6 C0.34 4.68 -0.32 3.36 -1 2 C-0.67 1.34 -0.34 0.68 0 0 Z " fill="#3D5468" transform="translate(173,71)"/>
<path d="M0 0 C1.65 0 3.3 0 5 0 C4.67 1.32 4.34 2.64 4 4 C2.35 4 0.7 4 -1 4 C-0.67 2.68 -0.34 1.36 0 0 Z " fill="#D7DBDE" transform="translate(246,69)"/>
<path d="M0 0 C1.65 0 3.3 0 5 0 C4.67 1.32 4.34 2.64 4 4 C2.35 4 0.7 4 -1 4 C-0.67 2.68 -0.34 1.36 0 0 Z " fill="#DEDFE0" transform="translate(207,38)"/>
<path d="M0 0 C1.65 0 3.3 0 5 0 C4.67 1.32 4.34 2.64 4 4 C2.35 4 0.7 4 -1 4 C-0.67 2.68 -0.34 1.36 0 0 Z " fill="#DCDEDE" transform="translate(169,38)"/>
<path d="M0 0 C0 0.99 0 1.98 0 3 C-2.97 2.67 -5.94 2.34 -9 2 C-5.5647952 -0.29013653 -4.014669 -0.17842973 0 0 Z " fill="#DADCDD" transform="translate(193,39)"/>
<path d="M0 0 C1.65 0 3.3 0 5 0 C5.33 0.99 5.66 1.98 6 3 C3.69 3 1.38 3 -1 3 C-0.67 2.01 -0.34 1.02 0 0 Z " fill="#EAECEC" transform="translate(236,32)"/>
<path d="M0 0 C1.98 0 3.96 0 6 0 C6 0.99 6 1.98 6 3 C4.02 3 2.04 3 0 3 C0 2.01 0 1.02 0 0 Z " fill="#D9DEE0" transform="translate(176,70)"/>
<path d="M0 0 C2.475 0.495 2.475 0.495 5 1 C4.67 2.98 4.34 4.96 4 7 C3.67 5.68 3.34 4.36 3 3 C2.01 3.33 1.02 3.66 0 4 C0 2.68 0 1.36 0 0 Z " fill="#102F49" transform="translate(190,63)"/>
</svg>
